{"title":"WWE.Hall.of.Fame.Ceremony.Pre-Show.2014.04.05.HDTV.XviD-FICEK9","uid":10059722,"size":499375996,"categoryP":"video","categoryS":"tv_shows","magnet":"?xt=urn:btih:0b759ad4207a6cd4cbfbef09a20d80c11f44ffb0&amp;dn=WWE.Hall.of.Fame.Ceremony.Pre-Show.2014.04.05.HDTV.XviD-FICEK9&amp;tr=udp%3A%2F%2Ftracker.openbittorrent.com%3A80&amp;tr=udp%3A%2F%2Fopen.demonii.com%3A1337&amp;tr=udp%3A%2F%2Ftracker.coppersurfer.tk%3A6969&amp;tr=udp%3A%2F%2Fexodus.desync.com%3A6969","seeders":1,"leechers":0,"uploader":"FICEK9","files":2,"time":1398713827,"description":"\n      Complete name : WWE.Hall.of.Fame.Ceremony.Pre-Show.2014.04.05.HDTV.XviD-FICEK9.avi\n      Format : AVI\n      Format/Info : Audio Video Interleave\n      File size : 476 MiB\n      Duration : 56mn 25s\n      Overall bit rate mode : Variable\n      Overall bit rate : 1 180 Kbps\n      Writing application : MEncoder SVN-r33883(20110719-gcc4.5.2)\n      Writing library : MPlayer\n   Video #0\n      ID : 0\n      Format : MPEG-4 Visual\n      Format profile : Advanced Simple@L5\n      Format settings, BVOP : 2\n      Format settings, QPel : No\n      Format settings, GMC : No warppoints\n      Format settings, Matrix : Default (H.263)\n      Codec ID : XVID\n      Codec ID/Hint : XviD\n      Duration : 56mn 25s\n      Bit rate : 1 044 Kbps\n      Width : 624 pixels\n      Height : 352 pixels\n      Display aspect ratio : 16:9\n      Original display aspect ratio : 16:9\n      Frame rate : 29.970 fps\n      Color space : YUV\n      Chroma subsampling : 4:2:0\n      Bit depth : 8 bits\n      Scan type : Progressive\n      Compression mode : Lossy\n      Bits/(Pixel*Frame) : 0.159\n      Stream size : 422 MiB (89%)\n      Writing library : XviD 1.2.1 (UTC 2008-12-04)\n   Audio #1\n      ID : 1\n      Format : MPEG Audio\n      Format version : Version 1\n      Format profile : Layer 3\n      Mode : Joint stereo\n      Mode extension : MS Stereo\n      Codec ID : 55\n      Codec ID/Hint : MP3\n      Duration : 56mn 25s\n      Bit rate mode : Variable\n      Bit rate : 122 Kbps\n      Channel(s) : 2 channels\n      Sampling rate : 48.0 KHz\n      Compression mode : Lossy\n      Stream size : 49.1 MiB (10%)\n      Alignment : Aligned on interleaves\n      Interleave, duration : 24 ms (0.72 video frame)\n      Interleave, preload duration : 533 ms\n","torrent":{"xt":"urn:btih:0b759ad4207a6cd4cbfbef09a20d80c11f44ffb0","amp;dn":"WWE.Hall.of.Fame.Ceremony.Pre-Show.2014.04.05.HDTV.XviD-FICEK9","amp;tr":["udp%3A%2F%2Ftracker.openbittorrent.com%3A80","udp%3A%2F%2Fopen.demonii.com%3A1337","udp%3A%2F%2Ftracker.coppersurfer.tk%3A6969","udp%3A%2F%2Fexodus.desync.com%3A6969"],"infoHash":"0b759ad4207a6cd4cbfbef09a20d80c11f44ffb0","infoHashBuffer":{"type":"Buffer","data":[11,117,154,212,32,122,108,212,203,251,239,9,162,13,128,193,31,68,255,176]},"announce":[],"urlList":[]}}